<?xml version="1.0" encoding="UTF-8" standalone="no"?>
<!DOCTYPE svg PUBLIC "-//W3C//DTD SVG 1.1//EN" "http://www.w3.org/Graphics/SVG/1.1/DTD/svg11.dtd">
<svg width="100%" height="100%" viewBox="0 0 31 16" version="1.1" xmlns="http://www.w3.org/2000/svg" xmlns:xlink="http://www.w3.org/1999/xlink" xml:space="preserve" xmlns:serif="http://www.serif.com/" style="fill-rule:evenodd;clip-rule:evenodd;stroke-linejoin:round;stroke-miterlimit:2;">
    <rect id="bus" x="0.981" y="0" width="30" height="16" style="fill:none;"/>
    <clipPath id="_clip1">
        <rect x="0.981" y="0" width="30" height="16"/>
    </clipPath>
    <g clip-path="url(#_clip1)">
        <circle cx="7.718" cy="12.873" r="2.794"/>
        <circle cx="24.439" cy="12.873" r="2.794"/>
        <path d="M3.891,12.875l-2.919,-0c0,-0 0.02,-8.987 0,-11.051c-0.008,-0.892 0.364,-1.411 1.066,-1.443c2.429,-0.109 25.689,0 25.689,0c0,0 0.492,0.11 0.875,0.878c0.445,0.89 1.724,3.349 2.213,4.228c0.161,0.289 0.176,0.995 0.176,0.995l-0,6.393l-2.771,-0l0,-0.002c0,-2.1 -1.705,-3.804 -3.804,-3.804c-2.1,-0 -3.804,1.704 -3.804,3.804l-0,0.002l-9.113,-0l0,-0.002c0,-2.1 -1.704,-3.804 -3.804,-3.804c-2.1,-0 -3.804,1.704 -3.804,3.804l-0,0.002Zm23.607,-10.936l-3.685,-0l-0,4.164l5.736,0l-2.051,-4.164Zm-19.063,-0l-6.09,-0l-0,3.911l6.09,-0l0,-3.911Zm7.156,-0l-6.09,-0l-0,3.911l6.09,-0l0,-3.911Zm7.156,-0l-6.09,-0l-0,3.911l6.09,-0l0,-3.911Z"/>
    </g>
</svg>
