<?xml version="1.0" encoding="UTF-8" standalone="no"?>
<!DOCTYPE svg PUBLIC "-//W3C//DTD SVG 1.1//EN" "http://www.w3.org/Graphics/SVG/1.1/DTD/svg11.dtd">
<svg width="100%" height="100%" viewBox="0 0 121 121" version="1.1" xmlns="http://www.w3.org/2000/svg" xmlns:xlink="http://www.w3.org/1999/xlink" xml:space="preserve" xmlns:serif="http://www.serif.com/" style="fill-rule:evenodd;clip-rule:evenodd;stroke-linejoin:round;stroke-miterlimit:2;">
    <rect id="jezdecka" x="0.115" y="0.549" width="120" height="120" style="fill:none;"/>
    <clipPath id="_clip1">
        <rect x="0.115" y="0.549" width="120" height="120"/>
    </clipPath>
    <g clip-path="url(#_clip1)">
        <path d="M120.115,8.448c0,-4.359 -3.539,-7.899 -7.899,-7.899l-104.202,0c-4.359,0 -7.899,3.54 -7.899,7.899l0,104.202c0,4.36 3.54,7.899 7.899,7.899l104.202,0c4.36,0 7.899,-3.539 7.899,-7.899l0,-104.202Z" style="fill:#565139;"/>
        <path d="M30.115,60.537c0.008,-16.549 13.448,-29.984 30,-29.984c16.553,0 29.992,13.435 30,29.984l0,-0l0,0.029l0,-0c-0.008,16.549 -13.447,29.983 -30,29.983c-16.552,0 -29.992,-13.434 -30,-29.983l0,-0l0,-0.029l0,-0Z" style="fill:#ff0600;"/>
        <path d="M110.115,10.537l-100,-0l0,100l100,-0l0,-100Zm-22.633,71.823c-6.416,8.037 -16.294,13.189 -27.367,13.189c-6.882,0 -13.304,-1.991 -18.719,-5.428c-9.91,-6.225 -16.503,-17.255 -16.503,-29.812c0,-19.417 15.765,-35.181 35.182,-35.181c19.417,-0 35.182,15.764 35.182,35.181c-0,8.346 -2.913,16.017 -7.775,22.051Z" style="fill:#fff;"/>
    </g>
</svg>
