<?xml version="1.0" encoding="UTF-8" standalone="no"?>
<!DOCTYPE svg PUBLIC "-//W3C//DTD SVG 1.1//EN" "http://www.w3.org/Graphics/SVG/1.1/DTD/svg11.dtd">
<svg width="100%" height="100%" viewBox="0 0 17 16" version="1.1" xmlns="http://www.w3.org/2000/svg" xmlns:xlink="http://www.w3.org/1999/xlink" xml:space="preserve" xmlns:serif="http://www.serif.com/" style="fill-rule:evenodd;clip-rule:evenodd;stroke-linejoin:round;stroke-miterlimit:2;">
    <path d="M5.015,5.556c-0.517,0.517 -0.24,1.735 0.406,1.735c0.221,0.018 0.166,0.092 -0.185,0.295c-0.59,0.314 -0.664,0.535 -0.757,2.731c-0.073,1.532 -0.055,1.68 0.351,2.086c0.369,0.369 0.609,0.424 1.827,0.424l1.384,0l0,1.329c0,1.55 0.148,1.864 0.757,1.772c0.443,-0.056 0.443,-0.074 0.443,-2.178l-0,-2.122l-2.399,-0.185l-0.093,-1.716c-0.092,-1.569 -0.129,-1.753 -0.553,-2.067c-0.369,-0.295 -0.388,-0.369 -0.148,-0.369c0.351,-0 0.701,-0.535 0.701,-1.07c0,-0.794 -1.162,-1.255 -1.734,-0.665Zm3.211,0.96c-0.369,0.295 -0.388,0.387 -0.185,0.775c0.166,0.295 0.203,0.867 0.129,1.79l-0.092,1.347l0.867,0c0.628,0 1.071,0.129 1.643,0.498l0.775,0.499l-0,1.236c-0,1.532 0.111,1.827 0.664,1.827c0.628,0 0.812,-0.517 0.812,-2.288c0,-1.883 -0.11,-2.049 -1.642,-2.215l-1.126,-0.129l0,-1.458c0,-1.236 -0.055,-1.532 -0.369,-1.845c-0.461,-0.462 -0.941,-0.462 -1.476,-0.037Zm-1.2,-5.536c-1.218,0.498 -3.026,1.217 -4.004,1.605c-1.698,0.664 -1.809,0.738 -1.809,1.218c0,0.295 0.074,0.535 0.148,0.535c0.073,0 1.273,-0.461 2.676,-1.015c1.384,-0.553 2.639,-1.015 2.768,-1.015c0.24,0 0.683,0.72 0.683,1.089c-0,0.074 -0.702,0.424 -1.569,0.757c-0.849,0.332 -1.679,0.756 -1.846,0.922c-0.258,0.296 -0.295,0.868 -0.276,3.968c-0,2.399 0.073,3.728 0.221,3.968c0.332,0.517 0.849,0.646 2.418,0.59c1.07,-0.037 1.421,-0.11 1.421,-0.313c-0,-0.203 -0.369,-0.277 -1.606,-0.314c-2.141,-0.074 -2.104,-0 -2.048,-4.152c0.037,-2.547 0.11,-3.23 0.332,-3.433c0.48,-0.443 7.898,-3.266 8.249,-3.137c0.923,0.314 0.978,0.517 0.978,3.322c0,2.509 0.018,2.639 0.369,2.639c0.351,-0 0.369,-0.13 0.369,-2.658l0,-2.657l-0.517,-0.554c-0.793,-0.849 -1.254,-0.886 -2.915,-0.24c-0.794,0.314 -1.514,0.572 -1.587,0.572c-0.148,0 -0.757,-1.107 -0.665,-1.199c0.037,-0.037 0.72,-0.332 1.532,-0.646c0.812,-0.314 1.513,-0.628 1.55,-0.664c0.037,-0.037 -0.535,-0.074 -1.292,-0.074c-1.181,0.018 -1.642,0.129 -3.58,0.886Zm4.448,4.318c-0.203,0.277 -0.222,0.48 -0.111,0.59c0.111,0.111 0.184,0.868 0.184,1.698l0,1.513l0.997,0.074c0.72,0.056 1.2,0.222 1.661,0.572c0.627,0.499 0.646,0.536 0.701,1.938c0.056,1.2 0.111,1.421 0.388,1.476c0.701,0.13 0.867,-0.276 0.867,-2.159c0,-0.978 -0.074,-1.882 -0.166,-2.03c-0.092,-0.147 -0.646,-0.277 -1.384,-0.332l-1.218,-0.111l-0,-1.624c-0,-1.421 -0.037,-1.661 -0.351,-1.827c-0.59,-0.313 -1.273,-0.221 -1.568,0.222Zm-3.138,-1.274c-0.442,0.333 -0.424,1.182 0.019,1.643c0.738,0.738 1.938,-0.185 1.55,-1.218c-0.258,-0.664 -0.978,-0.849 -1.569,-0.425Zm3.322,-1.254c-0.443,0.442 -0.369,1.328 0.129,1.642c0.905,0.609 1.864,-0.314 1.384,-1.329c-0.295,-0.59 -1.07,-0.756 -1.513,-0.313Z" style="fill-rule:nonzero;"/>
</svg>
