<?xml version="1.0" encoding="UTF-8" standalone="no"?>
<!DOCTYPE svg PUBLIC "-//W3C//DTD SVG 1.1//EN" "http://www.w3.org/Graphics/SVG/1.1/DTD/svg11.dtd">
<svg width="100%" height="100%" viewBox="0 0 121 120" version="1.1" xmlns="http://www.w3.org/2000/svg" xmlns:xlink="http://www.w3.org/1999/xlink" xml:space="preserve" xmlns:serif="http://www.serif.com/" style="fill-rule:evenodd;clip-rule:evenodd;stroke-linejoin:round;stroke-miterlimit:2;">
    <rect id="logo" x="0.981" y="0" width="120" height="120" style="fill:none;"/>
    <clipPath id="_clip1">
        <rect x="0.981" y="0" width="120" height="120"/>
    </clipPath>
    <g clip-path="url(#_clip1)">
        <path d="M104.429,23.362c-0,-3.758 -3.051,-6.809 -6.81,-6.809l-89.828,-0c-3.758,-0 -6.81,3.051 -6.81,6.809l0,89.829c0,3.758 3.052,6.809 6.81,6.809l89.828,0c3.759,0 6.81,-3.051 6.81,-6.809l-0,-89.829Z" style="fill:#565139;"/>
        <rect x="9.602" y="25.163" width="86.206" height="25.862" style="fill:#fff;"/>
        <rect x="9.602" y="55.335" width="86.206" height="25.862" style="fill:#e50000;"/>
        <path d="M25.398,85.507l0.399,0.161l3.682,1.044l2.666,0c-0,0 -0.582,1.002 0.729,1.645c1.311,0.643 1.714,0.297 1.714,0.297l0.819,0.821l-0.264,1.489l3.856,0.031l-1.61,1.492l6.706,0.17l-5.008,1.476l4.057,0.277l2.865,0.457l-3.564,1.232l4.344,0.162l-4.278,0.437l2.979,0l-0.859,0.911l3.406,0.1l3.638,0.265l-3.213,0.71l4.66,0.605l-1.889,0.034l1.467,1.07l2.16,-0l0.413,0.752l1.153,-0l1.563,-0.425l2.494,0.008l13.032,9.932l1.678,0.709l-65.591,-0l0,-25.862l15.796,-0Z" style="fill:#fff;"/>
        <path d="M84.218,64.058c3.032,-6.935 22.921,-52.344 28.212,-62.271c0.652,-1.223 4.238,-1.983 5.794,-1.375c1.556,0.609 3.893,3.665 3.54,5.029c-3.055,11.803 -21.627,64.937 -21.627,64.937l-0.338,0.818c-1.027,2.377 -4.018,9.283 -7.78,17.888l-14.551,-5.695c3.076,-8.873 5.564,-15.977 6.421,-18.42l0.321,-0.915l0.008,0.004Z" style="fill:#945605;"/>
        <path d="M74.352,92.518c1.135,-3.189 2.249,-6.311 3.321,-9.309l14.317,5.603c-1.248,2.93 -2.548,5.979 -3.878,9.091l-13.76,-5.385Z" style="fill:#999;"/>
        <path d="M113.074,2.948c-5.287,10.424 -26.918,60.92 -26.918,60.92l12.725,4.98c0,0 18.422,-51.752 21.588,-63.005c0.365,-1.301 -1.364,-4.035 -2.597,-4.517c-1.232,-0.482 -4.197,0.437 -4.798,1.622Z" style="fill:#f0c574;"/>
        <path d="M79.38,82.863c3.419,-9.742 6.022,-17.068 6.022,-17.068l12.725,4.981c-0,-0 -3.058,7.148 -7.156,16.624l-11.591,-4.537Z" style="fill:#f0c574;"/>
        <path d="M76.431,91.265c0.766,-2.186 1.517,-4.327 2.241,-6.383l11.449,4.481c-0.864,2.001 -1.765,4.084 -2.686,6.209l-11.004,-4.307Z" style="fill:#e6e6e6;"/>
        <path d="M69.61,97.618l2.502,-1.203c0.093,-0.045 0.206,-0.02 0.271,0.061c0.066,0.08 0.068,0.195 0.006,0.278c-0,-0 -1.896,2.505 -1.896,2.505l4.961,-3.122c0.091,-0.057 0.21,-0.042 0.284,0.036c0.074,0.079 0.082,0.198 0.019,0.286c0,-0 -2.262,3.165 -2.262,3.165l3.049,-1.765c0.086,-0.05 0.194,-0.038 0.266,0.03c0.073,0.067 0.093,0.174 0.049,0.263c-0,0 -1.12,2.282 -1.12,2.282l4.539,-3.652c0.086,-0.069 0.21,-0.066 0.292,0.008c0.082,0.074 0.098,0.197 0.038,0.289l-2.114,3.269c-0.006,0.01 -0.013,0.019 -0.021,0.028c0,0 -2.391,2.668 -2.391,2.668l4.487,-2.95c0.087,-0.058 0.203,-0.047 0.279,0.025c0.076,0.073 0.091,0.188 0.037,0.278c0,0 -1.751,2.929 -1.751,2.929l5.087,-4.277c0.084,-0.071 0.206,-0.071 0.29,-0c0.084,0.07 0.105,0.191 0.05,0.285l-1.967,3.375c-0.005,0.008 -0.011,0.017 -0.017,0.025c-0,0 -1.369,1.746 -1.369,1.746l3.689,-2.206c1.542,-1.917 2.665,-3.67 3.016,-4.644l-13.355,-5.184c-0.579,1.37 -2.433,3.453 -4.948,5.172Z" style="fill:#f0c574;"/>
        <path d="M67.51,99.126c-0.093,0.045 -2.69,1.477 -7.13,1.588l13.83,10.607c4.21,0.315 6.776,-4.464 9.819,-8.004l-3.632,2.172c-0.093,0.055 -0.212,0.037 -0.284,-0.045c-0.072,-0.081 -0.075,-0.202 -0.008,-0.287c-0,-0 2.108,-2.688 2.108,-2.688c0,-0 1.307,-2.242 1.307,-2.242l-5.122,4.306c-0.084,0.071 -0.207,0.07 -0.291,-0.001c-0.083,-0.071 -0.103,-0.193 -0.047,-0.287c0,0 1.935,-3.235 1.935,-3.235l-5.113,3.362c-0.094,0.062 -0.22,0.044 -0.294,-0.042c-0.074,-0.085 -0.073,-0.212 0.003,-0.297c-0,0 3.535,-3.944 3.535,-3.944c0,-0 1.345,-2.08 1.345,-2.08l-4.239,3.411c-0.082,0.066 -0.199,0.066 -0.282,0c-0.082,-0.066 -0.108,-0.18 -0.061,-0.275c-0,0 1.239,-2.526 1.239,-2.526l-3.308,1.917c-0.092,0.053 -0.208,0.035 -0.28,-0.044c-0.071,-0.078 -0.078,-0.195 -0.016,-0.282c-0,0 2.203,-3.083 2.203,-3.083l-5.036,3.169c-0.092,0.058 -0.213,0.042 -0.286,-0.038c-0.073,-0.08 -0.079,-0.201 -0.014,-0.288c0,0 2.078,-2.747 2.078,-2.747l-3.959,1.903Z" style="fill:#fff;"/>
    </g>
</svg>
