<?xml version="1.0" encoding="UTF-8" standalone="no"?>
<!DOCTYPE svg PUBLIC "-//W3C//DTD SVG 1.1//EN" "http://www.w3.org/Graphics/SVG/1.1/DTD/svg11.dtd">
<svg width="100%" height="100%" viewBox="0 0 121 121" version="1.1" xmlns="http://www.w3.org/2000/svg" xmlns:xlink="http://www.w3.org/1999/xlink" xml:space="preserve" xmlns:serif="http://www.serif.com/" style="fill-rule:evenodd;clip-rule:evenodd;stroke-linejoin:round;stroke-miterlimit:2;">
    <rect id="misto" x="0.565" y="0.835" width="120" height="120" style="fill:none;"/>
    <clipPath id="_clip1">
        <rect x="0.565" y="0.835" width="120" height="120"/>
    </clipPath>
    <g clip-path="url(#_clip1)">
        <path d="M120.565,8.734c0,-4.36 -3.539,-7.899 -7.899,-7.899l-104.202,-0c-4.359,-0 -7.899,3.539 -7.899,7.899l0,104.202c0,4.36 3.54,7.899 7.899,7.899l104.202,-0c4.36,-0 7.899,-3.539 7.899,-7.899l0,-104.202Z" style="fill:#565139;"/>
        <path d="M75.565,60.835l0,-30l-30,-0l0,30l-35,-0l0,30l100,-0l0,-30l-35,-0Z" style="fill:#e50000;"/>
        <path d="M110.565,55.835l0,-45.013l-100,0l0,45.013l30,-0l0,-30.013l40,0l0,30.013l30,-0Z" style="fill:#fff;"/>
        <rect x="10.565" y="95.835" width="100" height="15" style="fill:#fff;"/>
    </g>
</svg>
