<?xml version="1.0" encoding="UTF-8" standalone="no"?>
<!DOCTYPE svg PUBLIC "-//W3C//DTD SVG 1.1//EN" "http://www.w3.org/Graphics/SVG/1.1/DTD/svg11.dtd">
<svg width="100%" height="100%" viewBox="0 0 121 120" version="1.1" xmlns="http://www.w3.org/2000/svg" xmlns:xlink="http://www.w3.org/1999/xlink" xml:space="preserve" xmlns:serif="http://www.serif.com/" style="fill-rule:evenodd;clip-rule:evenodd;stroke-linejoin:round;stroke-miterlimit:2;">
    <rect id="mistni" x="0.773" y="0" width="120" height="120" style="fill:none;"/>
    <clipPath id="_clip1">
        <rect x="0.773" y="0" width="120" height="120"/>
    </clipPath>
    <g clip-path="url(#_clip1)">
        <path d="M120.773,7.899c-0,-4.36 -3.54,-7.899 -7.899,-7.899l-104.202,0c-4.36,0 -7.899,3.539 -7.899,7.899l-0,104.202c-0,4.36 3.539,7.899 7.899,7.899l104.202,0c4.359,0 7.899,-3.539 7.899,-7.899l-0,-104.202Z" style="fill:#565139;"/>
        <path d="M110.773,10l-93.471,0l93.471,92.786l-0,-92.786Z" style="fill:#e50000;"/>
        <path d="M110.773,109.988l-99.78,-99.988l-0.22,99.988l100,-0Z" style="fill:#fff;"/>
    </g>
</svg>
