<?xml version="1.0" encoding="UTF-8" standalone="no"?>
<!DOCTYPE svg PUBLIC "-//W3C//DTD SVG 1.1//EN" "http://www.w3.org/Graphics/SVG/1.1/DTD/svg11.dtd">
<svg width="100%" height="100%" viewBox="0 0 17 16" version="1.1" xmlns="http://www.w3.org/2000/svg" xmlns:xlink="http://www.w3.org/1999/xlink" xml:space="preserve" xmlns:serif="http://www.serif.com/" style="fill-rule:evenodd;clip-rule:evenodd;stroke-linejoin:round;stroke-miterlimit:2;">
    <rect id="park" x="0.522" y="0" width="16" height="16" style="fill:none;"/>
    <path d="M1.591,0.219c-0.242,0.101 -0.646,0.444 -0.646,0.706c-0.109,0.629 -0.201,3.331 -0.201,7.287l-0,6.809c-0,-0 0.523,0.929 0.989,0.943c1.321,0.039 6.984,-0 6.984,-0c6.702,-0 6.984,-0.02 7.368,-0.404c0.384,-0.383 0.404,-0.666 0.404,-7.529c-0,-3.896 -0.081,-7.207 -0.162,-7.328c-0.403,-0.626 -1.09,-0.686 -7.65,-0.666c-3.634,0 -6.823,0.081 -7.086,0.182Zm9.347,2.886c2.18,1.232 2.482,4.118 0.585,5.774c-0.807,0.726 -1.797,1.029 -3.351,1.029l-1.171,0l0,3.432l-1.816,-0l-0,-10.699l2.482,0c2.181,0 2.564,0.061 3.271,0.464Zm-3.937,1.353l0,3.431l1.514,0c1.232,0 1.595,-0.08 1.918,-0.403c0.545,-0.545 0.686,-1.292 0.363,-1.938c-0.363,-0.787 -1.049,-1.09 -2.523,-1.09l-1.272,-0Z" style="fill-rule:nonzero;"/>
</svg>
