<?xml version="1.0" encoding="UTF-8" standalone="no"?>
<!DOCTYPE svg PUBLIC "-//W3C//DTD SVG 1.1//EN" "http://www.w3.org/Graphics/SVG/1.1/DTD/svg11.dtd">
<svg width="100%" height="100%" viewBox="0 0 26 26" version="1.1" xmlns="http://www.w3.org/2000/svg" xmlns:xlink="http://www.w3.org/1999/xlink" xml:space="preserve" xmlns:serif="http://www.serif.com/" style="fill-rule:evenodd;clip-rule:evenodd;stroke-linejoin:round;stroke-miterlimit:2;">
    <rect id="tim-vozickar" x="0.63" y="0.71" width="25" height="25" style="fill:none;"/>
    <path d="M16.717,22.218c-1.353,2.067 -3.689,3.433 -6.342,3.433c-4.181,0 -7.575,-3.394 -7.575,-7.575c-0,-2.91 1.643,-5.439 4.052,-6.707l0.437,2.925c-1.096,0.895 -1.796,2.257 -1.796,3.782c0,2.694 2.188,4.881 4.882,4.881c2.651,0 4.811,-2.117 4.88,-4.752l1.462,4.013Zm-10.465,-17.219c-0.195,-0.391 -0.304,-0.833 -0.304,-1.3c-0,-1.617 1.312,-2.93 2.929,-2.93c1.617,0 2.93,1.313 2.93,2.93c-0,1.465 -1.078,2.68 -2.483,2.896l0.636,4.184l5.916,-0.056l-0.023,2.403l-5.51,0.019l0.084,0.675l6.745,-0.003l3.01,8.478l2.61,-0.815l0.668,1.955l-5.327,1.621l-2.951,-8.397l-7.303,-0.005l-1.627,-11.655Z" style="fill:#e70600;"/>
</svg>
