<?xml version="1.0" encoding="UTF-8" standalone="no"?>
<!DOCTYPE svg PUBLIC "-//W3C//DTD SVG 1.1//EN" "http://www.w3.org/Graphics/SVG/1.1/DTD/svg11.dtd">
<svg width="100%" height="100%" viewBox="0 0 31 16" version="1.1" xmlns="http://www.w3.org/2000/svg" xmlns:xlink="http://www.w3.org/1999/xlink" xml:space="preserve" xmlns:serif="http://www.serif.com/" style="fill-rule:evenodd;clip-rule:evenodd;stroke-linejoin:round;stroke-miterlimit:2;">
    <rect id="tram" x="0.2" y="0" width="30" height="16" style="fill:none;"/>
    <path d="M0.801,0.083c-0.046,0.04 -0.092,0.201 -0.092,0.362c-0,0.201 1.244,0.261 6.565,0.261c3.617,0 6.565,0.081 6.565,0.181c0,0.081 -0.506,0.584 -1.151,1.107c-0.645,0.523 -1.152,1.046 -1.152,1.187c0.023,0.141 0.576,0.785 1.267,1.448c0.691,0.664 1.267,1.268 1.267,1.348c-0,0.101 -1.198,0.161 -2.649,0.161c-1.567,0 -2.65,0.081 -2.65,0.202c0,0.1 -1.313,0.221 -3.155,0.241c-3.179,0.06 -3.179,0.06 -3.249,0.543c-0.046,0.282 0.07,0.604 0.277,0.724c0.322,0.222 0.322,0.363 -0.092,1.59c-0.231,0.744 -0.507,1.972 -0.599,2.716c-0.138,1.267 -0.092,1.408 0.391,1.811c0.369,0.281 0.83,0.422 1.498,0.422c0.576,0 1.082,0.121 1.244,0.302c0.253,0.261 0.069,0.302 -1.475,0.302c-1.727,-0 -1.773,0.02 -1.704,0.442l0.069,0.463l26.031,0l0.069,-0.463c0.069,-0.422 0.023,-0.442 -1.705,-0.442c-1.635,-0 -1.774,-0.02 -1.451,-0.322c0.207,-0.161 0.806,-0.362 1.313,-0.423c0.53,-0.06 1.175,-0.302 1.428,-0.523c0.461,-0.362 0.484,-0.523 0.346,-1.69c-0.092,-0.724 -0.346,-1.931 -0.599,-2.696c-0.53,-1.71 -0.553,-1.589 0.138,-1.589c0.461,-0 0.576,-0.101 0.576,-0.503l-0,-0.503l-4.584,-0c-3.87,-0 -4.608,-0.04 -4.723,-0.302c-0.092,-0.221 -0.506,-0.302 -1.75,-0.302c-0.876,0 -1.613,-0.06 -1.613,-0.14c0,-0.081 0.622,-0.705 1.405,-1.389l1.405,-1.227l-1.405,-1.227c-0.783,-0.664 -1.405,-1.248 -1.405,-1.328c0,-0.06 3.156,-0.121 7.026,-0.121c6.059,0 7.026,-0.04 7.026,-0.302c0,-0.261 -1.843,-0.301 -14.305,-0.342c-7.856,-0.04 -14.352,-0.02 -14.398,0.021Zm7.51,14.606c0.253,0.261 0.184,0.302 -0.415,0.302c-0.553,-0 -0.691,-0.081 -0.599,-0.302c0.092,-0.161 0.277,-0.302 0.438,-0.302c0.161,0 0.415,0.141 0.576,0.302Zm11.288,-0c0.253,0.261 -0.277,0.302 -4.469,0.302c-4.331,-0 -5.045,-0.081 -4.585,-0.463c0.069,-0.081 2.097,-0.141 4.446,-0.141c3.571,0 4.377,0.06 4.608,0.302Zm3.179,0.06c0.046,0.141 -0.162,0.242 -0.53,0.242c-0.553,-0 -0.599,-0.041 -0.346,-0.302c0.323,-0.342 0.714,-0.322 0.876,0.06Zm-14.928,-7.001l0,5.432l-2.304,-0l0,-2.575c0,-1.429 0.07,-2.656 0.162,-2.716c0.069,-0.081 0.599,-0.141 1.151,-0.141l0.991,-0Zm14.052,-0l0,5.432l-1.382,-0l-0,-5.432l1.382,-0Zm2.258,2.756l0.069,2.676l-1.405,-0l-0,-5.452l0.645,0.06l0.622,0.06l0.069,2.656Zm2.027,-2.213c0.069,0.322 0.207,0.805 0.322,1.107c0.254,0.664 0.139,0.764 -0.967,0.764l-0.875,0l-0,-1.207c-0,-1.207 -0,-1.207 0.691,-1.207c0.552,-0 0.714,0.1 0.829,0.543Zm-13.776,0.604l-0.069,0.965l-1.889,0.061l-1.912,0.06l0,-2.032l3.939,0l-0.069,0.946Zm7.418,-1.147l-0,2.213l-2.073,-0l-0,-0.966c-0,-0.543 0.069,-1.046 0.161,-1.106c0.069,-0.081 0.553,-0.141 1.037,-0.141l0.875,-0Zm-2.995,0.201l0,2.012l-3.686,-0l0,-2.012l3.686,0Zm-0.76,-5.714l1.29,1.127l-1.29,1.127c-1.451,1.267 -1.359,1.287 -2.949,-0.383l-0.921,-0.965l1.175,-1.026c0.668,-0.544 1.244,-1.006 1.29,-1.006c0.069,-0 0.691,0.503 1.405,1.126Z" style="fill-rule:nonzero;"/>
</svg>
